<?xml version="1.0" encoding="UTF-8"?>
<svg version="1.1" xmlns="http://www.w3.org/2000/svg" width="100" height="100">
<path d="M0 0 C0.99 0 1.98 0 3 0 C4.421875 1.57421875 4.421875 1.57421875 5.75 3.6875 C6.19859375 4.37199219 6.6471875 5.05648438 7.109375 5.76171875 C8.25536742 8.64177864 7.7899566 10.0279434 7 13 C5.9753418 15.16210938 5.9753418 15.16210938 4.69921875 17.34375 C3.98427246 18.57919556 3.98427246 18.57919556 3.25488281 19.83959961 C2.73764648 20.71753174 2.22041016 21.59546387 1.6875 22.5 C0.59225385 24.3866061 -0.50279249 26.27332821 -1.59765625 28.16015625 C-2.1611377 29.1258252 -2.72461914 30.09149414 -3.30517578 31.08642578 C-5.98156893 35.68741625 -8.61454788 40.31297952 -11.25 44.9375 C-12.24585328 46.68112695 -13.24194072 48.42462018 -14.23828125 50.16796875 C-14.94138428 51.39845947 -14.94138428 51.39845947 -15.65869141 52.65380859 C-16.88996649 54.80753148 -18.12240132 56.96058417 -19.35546875 59.11328125 C-19.71157227 59.73533447 -20.06767578 60.3573877 -20.43457031 60.99829102 C-21.35050352 62.59805264 -22.26701815 64.19748134 -23.18359375 65.796875 C-25.48192225 69.84984139 -27.73725567 73.92706021 -30 78 C-9.21 77.67 11.58 77.34 33 77 C32.01 75.35 31.02 73.7 30 72 C30 71.01 30 70.02 30 69 C15.81 69 1.62 69 -13 69 C-13.33 68.01 -13.66 67.02 -14 66 C-12.55859375 63.25 -12.55859375 63.25 -10.4375 60 C-9.68144209 58.81777953 -8.92755847 57.63416593 -8.17578125 56.44921875 C-7.80146973 55.86188965 -7.4271582 55.27456055 -7.04150391 54.66943359 C-5.64471651 52.43051372 -4.37507254 50.13612186 -3.125 47.8125 C-2.65578125 46.94109375 -2.1865625 46.0696875 -1.703125 45.171875 C-1.14109375 44.12515625 -0.5790625 43.0784375 0 42 C1.69688718 38.84782599 3.40778163 35.7036386 5.125 32.5625 C5.54507324 31.78044189 5.96514648 30.99838379 6.39794922 30.19262695 C8.55721619 26.25616971 10.55380733 22.97770104 14 20 C18.77128639 27.85671826 23.49090943 35.70940235 27.80859375 43.828125 C29.05999828 46.18333502 29.05999828 46.18333502 31 49 C31 49.99 31 50.98 31 52 C27.04 52 23.08 52 19 52 C17.35 49.03 15.7 46.06 14 43 C11.03628274 46.30568463 8.94358781 49.81034429 6.8515625 53.69921875 C6.31611816 54.69139404 5.78067383 55.68356934 5.22900391 56.70581055 C4.82343262 57.46289307 4.41786133 58.21997559 4 59 C4.9379541 58.94763184 5.8759082 58.89526367 6.84228516 58.84130859 C10.34291277 58.67023994 13.83907576 58.54528311 17.34228516 58.45068359 C18.85406764 58.40056032 20.36536913 58.33243159 21.87548828 58.24560547 C26.74620955 57.97269096 31.2258453 57.89991963 36 59 C39.16666628 61.90761601 40.51211931 65.02022156 42 69 C42.59167969 70.05832031 43.18335937 71.11664063 43.79296875 72.20703125 C44.25316406 73.06683594 44.71335937 73.92664063 45.1875 74.8125 C46.61815699 77.48069499 48.05130861 80.08073034 49.67578125 82.63671875 C51 85 51 85 51 88 C18 88 -15 88 -49 88 C-45.54053311 74.16213245 -34.77720704 60.34847388 -27.5390625 48.1640625 C-26.960354 47.18928955 -26.38164551 46.2145166 -25.78540039 45.21020508 C-24.66487987 43.32562834 -23.541806 41.44256662 -22.41577148 39.5612793 C-19.74575707 35.07384265 -17.24153878 30.57632715 -14.9543457 25.88305664 C-13.32798871 22.67402838 -11.44271382 19.62737352 -9.5625 16.5625 C-6.24987371 11.10685042 -3.03034989 5.619091 0 0 Z " fill="#F9FCFC" transform="translate(49,6)"/>
</svg>
